<svg xmlns="http://www.w3.org/2000/svg" width="116" height="116" viewBox="0 0 116 116" fill="none"><path d="M113.838 73.7813C113.884 74.7873 113.722 75.8208 113.352 76.8816C113.307 77.0082 113.254 77.127 113.205 77.249C105.202 99.8186 83.6439 116 58.2758 116C26.0909 116 0 89.975 0 57.8712C0 50.1996 1.49602 42.8787 4.20382 36.175C4.25883 36.0196 4.30926 35.8656 4.37344 35.7086C4.79978 34.6706 5.36518 33.7896 6.10325 32.9787C6.89328 32.2912 7.73374 31.7242 8.62615 31.2807C9.569 30.959 10.5638 30.7594 11.609 30.6816C12.7413 30.6389 13.7667 30.8569 14.8073 31.2837C15.848 31.7105 16.7312 32.2729 17.4219 33.061C18.1982 33.8841 18.7651 34.7224 19.2098 35.6126C19.6193 36.5881 19.8195 37.5804 19.8104 38.5879C19.8516 39.7174 19.6346 40.7402 19.2068 41.7782C19.1074 42.0205 18.9974 42.2537 18.8813 42.4793C17.0078 47.2472 15.9763 52.4372 15.9763 57.8697C15.9763 81.1724 34.9141 100.062 58.2758 100.062C76.474 100.062 91.9828 88.5955 97.95 72.5116C98.0188 72.2174 98.1028 71.9217 98.2052 71.626C98.575 70.5651 99.09 69.6552 99.8418 68.9251C100.536 68.076 101.344 67.4648 102.268 67.0929C103.224 66.6326 104.206 66.378 105.334 66.2744C106.373 66.1403 107.409 66.3018 108.473 66.6707C109.535 67.0396 110.448 67.5548 111.267 68.3336C111.999 69.0836 112.611 69.8899 113.074 70.8426C113.479 71.6763 113.732 72.6564 113.836 73.7813H113.838ZM99.5331 48.805C99.5331 53.3396 103.219 57.0176 107.767 57.0176C112.314 57.0176 116 53.3411 116 48.805C116 44.2688 112.314 40.5923 107.767 40.5923C103.219 40.5923 99.5331 44.2688 99.5331 48.805ZM96.9674 33.8993C101.514 33.8993 105.201 30.2228 105.201 25.6867C105.201 21.1505 101.515 17.474 96.9674 17.474C92.4198 17.474 88.734 21.1505 88.734 25.6867C88.734 30.2228 92.4198 33.8993 96.9674 33.8993ZM76.1317 19.0775C80.6778 19.0775 84.3652 15.401 84.3652 10.8649C84.3652 6.32869 80.6794 2.65219 76.1317 2.65219C71.5841 2.65219 67.8983 6.32869 67.8983 10.8649C67.8983 15.401 71.5841 19.0775 76.1317 19.0775ZM50.6582 16.4238C55.2043 16.4238 58.8917 12.7473 58.8917 8.21113C58.8917 3.67497 55.2043 0 50.6582 0C46.1121 0 42.4248 3.67649 42.4248 8.21266C42.4248 12.7488 46.1106 16.4253 50.6582 16.4253V16.4238ZM27.1865 26.5662C31.7326 26.5662 35.42 22.8897 35.42 18.3535C35.42 13.8173 31.7342 10.1408 27.1865 10.1408C22.6389 10.1408 18.9531 13.8173 18.9531 18.3535C18.9531 22.8897 22.6389 26.5662 27.1865 26.5662Z" fill="#6DFD8C"/></svg>